<svg width="580" height="332" viewBox="0 0 580 332" fill="none" xmlns="http://www.w3.org/2000/svg">
<g filter="url(#filter0_d)">
<rect x="16" y="12" width="548" height="300" rx="16" fill="#212528"/>
<rect x="16" y="12" width="548" height="140" rx="16" fill="#212528"/>
<path d="M59.9906 71.7876C54.1945 71.7853 49.5 76.4774 49.5 82.2688C49.5 86.8485 52.4367 90.7415 56.5266 92.1712C57.0773 92.3095 56.993 91.9181 56.993 91.6509V89.8345C53.8125 90.2071 53.6836 88.1024 53.4703 87.7509C53.0391 87.0149 52.0195 86.8274 52.3242 86.4759C53.0484 86.1032 53.7867 86.5696 54.6422 87.8329C55.2609 88.7493 56.468 88.5946 57.0797 88.4423C57.2133 87.8915 57.4992 87.3993 57.893 87.0173C54.5977 86.4267 53.2242 84.4157 53.2242 82.0251C53.2242 80.8649 53.6062 79.7985 54.3562 78.9384C53.8781 77.5204 54.4008 76.3063 54.4711 76.1259C55.8328 76.004 57.2484 77.1009 57.3586 77.1876C58.132 76.979 59.0156 76.8688 60.0047 76.8688C60.9984 76.8688 61.8844 76.9837 62.6648 77.1946C62.9297 76.9931 64.2422 76.0509 65.5078 76.1657C65.5758 76.3462 66.0867 77.5321 65.6367 78.9313C66.3961 79.7938 66.7828 80.8696 66.7828 82.0321C66.7828 84.4274 65.4 86.4407 62.0953 87.022C62.3784 87.3003 62.6031 87.6323 62.7564 87.9985C62.9098 88.3647 62.9886 88.7578 62.9883 89.1548V91.7915C63.007 92.0024 62.9883 92.211 63.3398 92.211C67.4906 90.8118 70.4789 86.8907 70.4789 82.2712C70.4789 76.4774 65.782 71.7876 59.9906 71.7876Z" fill="white"/>
<path d="M16 28C16 19.1634 23.1634 12 32 12H548C556.837 12 564 19.1634 564 28V52H16V28Z" fill="#1E1E1E"/>
<circle cx="36" cy="32" r="4" fill="#464A4D"/>
<circle cx="52" cy="32" r="4" fill="#464A4D"/>
<circle cx="68" cy="32" r="4" fill="#464A4D"/>
</g>
<defs>
<filter id="filter0_d" x="0" y="0" width="580" height="332" filterUnits="userSpaceOnUse" color-interpolation-filters="sRGB">
<feFlood flood-opacity="0" result="BackgroundImageFix"/>
<feColorMatrix in="SourceAlpha" type="matrix" values="0 0 0 0 0 0 0 0 0 0 0 0 0 0 0 0 0 0 127 0"/>
<feOffset dy="4"/>
<feGaussianBlur stdDeviation="8"/>
<feColorMatrix type="matrix" values="0 0 0 0 0 0 0 0 0 0 0 0 0 0 0 0 0 0 0.25 0"/>
<feBlend mode="normal" in2="BackgroundImageFix" result="effect1_dropShadow"/>
<feBlend mode="normal" in="SourceGraphic" in2="effect1_dropShadow" result="shape"/>
</filter>
</defs>
</svg>
