<svg width="319" height="352" viewBox="0 0 319 352" fill="none" xmlns="http://www.w3.org/2000/svg">
<g filter="url(#filter0_d)">
<rect x="16" y="12" width="287" height="320" rx="16" fill="#212528"/>
<rect x="16" y="52" width="287" height="72" rx="16" fill="#212528"/>
<path d="M43.9906 77.7876C38.1945 77.7853 33.5 82.4774 33.5 88.2688C33.5 92.8485 36.4367 96.7415 40.5266 98.1712C41.0773 98.3095 40.993 97.9181 40.993 97.6509V95.8345C37.8125 96.2071 37.6836 94.1024 37.4703 93.7509C37.0391 93.0149 36.0195 92.8274 36.3242 92.4759C37.0484 92.1032 37.7867 92.5696 38.6422 93.8329C39.2609 94.7493 40.468 94.5946 41.0797 94.4423C41.2133 93.8915 41.4992 93.3993 41.893 93.0173C38.5977 92.4267 37.2242 90.4157 37.2242 88.0251C37.2242 86.8649 37.6062 85.7985 38.3562 84.9384C37.8781 83.5204 38.4008 82.3063 38.4711 82.1259C39.8328 82.004 41.2484 83.1009 41.3586 83.1876C42.132 82.979 43.0156 82.8688 44.0047 82.8688C44.9984 82.8688 45.8844 82.9837 46.6648 83.1946C46.9297 82.9931 48.2422 82.0509 49.5078 82.1657C49.5758 82.3462 50.0867 83.5321 49.6367 84.9313C50.3961 85.7938 50.7828 86.8696 50.7828 88.0321C50.7828 90.4274 49.4 92.4407 46.0953 93.022C46.3784 93.3003 46.6031 93.6323 46.7564 93.9985C46.9098 94.3647 46.9886 94.7578 46.9883 95.1548V97.7915C47.007 98.0024 46.9883 98.211 47.3398 98.211C51.4906 96.8118 54.4789 92.8907 54.4789 88.2712C54.4789 82.4774 49.782 77.7876 43.9906 77.7876V77.7876Z" fill="white"/>
<path d="M16 28C16 19.1634 23.1634 12 32 12H287C295.837 12 303 19.1634 303 28V52H16V28Z" fill="#1E1E1E"/>
<circle cx="36" cy="32" r="4" fill="#464A4D"/>
<circle cx="52" cy="32" r="4" fill="#464A4D"/>
<circle cx="68" cy="32" r="4" fill="#464A4D"/>
</g>
<defs>
<filter id="filter0_d" x="0" y="0" width="319" height="352" filterUnits="userSpaceOnUse" color-interpolation-filters="sRGB">
<feFlood flood-opacity="0" result="BackgroundImageFix"/>
<feColorMatrix in="SourceAlpha" type="matrix" values="0 0 0 0 0 0 0 0 0 0 0 0 0 0 0 0 0 0 127 0"/>
<feOffset dy="4"/>
<feGaussianBlur stdDeviation="8"/>
<feColorMatrix type="matrix" values="0 0 0 0 0 0 0 0 0 0 0 0 0 0 0 0 0 0 0.25 0"/>
<feBlend mode="normal" in2="BackgroundImageFix" result="effect1_dropShadow"/>
<feBlend mode="normal" in="SourceGraphic" in2="effect1_dropShadow" result="shape"/>
</filter>
</defs>
</svg>
